<?xml version="1.0" encoding="UTF-8"?>
<svg version="1.1" xmlns="http://www.w3.org/2000/svg" width="115" height="128">
<path d="M0 0 C0.99 0 1.98 0 3 0 C3.25394531 0.61488281 3.50789063 1.22976562 3.76953125 1.86328125 C4.11371094 2.67152344 4.45789063 3.47976562 4.8125 4.3125 C5.14894531 5.11300781 5.48539062 5.91351563 5.83203125 6.73828125 C6.9898003 8.98024873 8.19283399 10.27793599 10 12 C11.52698916 16.45371837 10.80606655 20.45671579 10 25 C9.01 26.485 9.01 26.485 8 28 C8.804375 28.78375 9.60875 29.5675 10.4375 30.375 C13.26996596 33.27655049 13.91288793 33.97643312 14.25 37.9375 C14 41 14 41 13 42.8125 C9.81931546 44.70103144 6.66530121 44.69956547 3 45 C1.99605038 48.94278397 1.14501753 52.43348849 3.1640625 56.1328125 C4.23421203 57.477089 5.32339238 58.8064035 6.4296875 60.12109375 C11.86251056 66.62156114 11.70520748 73.94888127 11 82 C9.1535779 91.93990565 2.67369709 100.63212112 -5 107 C-6.35957361 107.83805778 -7.73495047 108.65102461 -9.125 109.4375 C-12.22243458 111.24136995 -13.73968705 112.81855624 -15.5 115.9375 C-18.83813205 121.84342594 -23.28317869 125.16993885 -29.74609375 127.14453125 C-33.93417215 128.09991995 -37.96452752 128.34669655 -42.25 128.3125 C-42.98726318 128.30758545 -43.72452637 128.3026709 -44.48413086 128.29760742 C-54.40809599 128.08728537 -63.01403753 126.05415297 -71 120 C-71.62777344 119.55785156 -72.25554687 119.11570312 -72.90234375 118.66015625 C-77.7065608 114.99351279 -80.45531904 110.87183356 -82 105 C-81.92460171 100.40070408 -81.29842677 97.29842677 -78 94 C-73.09357516 92.36452505 -69.31822976 92.42477247 -64.5625 94.5 C-63.716875 94.995 -62.87125 95.49 -62 96 C-61.773125 95.4225 -61.54625 94.845 -61.3125 94.25 C-59.08951132 90.43916226 -56.14211008 88.38070336 -52 87 C-45.66502049 86.23543351 -42.12954073 87.37142758 -36.98828125 91.171875 C-33.05488965 94.78843152 -31.21883538 98.40364808 -30.76953125 103.734375 C-30.75231196 106.17262607 -30.82066589 108.56902646 -31 111 C-28.37355505 106.15117856 -27.63512374 103.34891964 -28.96875 97.9921875 C-33.06956782 90.07015308 -43.34510674 83.62146913 -50.6875 78.875 C-58.14625414 73.99606584 -64.85716668 69.12813247 -67 60 C-66.35565409 55.86544706 -64.64825843 52.23619383 -61.25 49.6875 C-58.13143415 48.73460488 -55.23765175 48.87547493 -52 49 C-53.97257863 45.45764459 -53.97257863 45.45764459 -57 43 C-59.85816116 43.05823079 -62.41819384 43.70497588 -65.20703125 44.33203125 C-69.9207066 45.16214297 -74.47295987 45.29053256 -79.25 45.3125 C-80.08926025 45.32941895 -80.92852051 45.34633789 -81.79321289 45.36376953 C-88.50044224 45.36244491 -94.28707504 44.37380934 -99.5 39.8125 C-101.63539403 35.8086362 -101.58216038 33.51174294 -101 29 C-99.5 27 -99.5 27 -97 26 C-92.69538278 25.59003646 -90.07835539 25.58701283 -86.0625 27.125 C-84 29 -84 29 -83.125 32.125 C-83.08375 33.07375 -83.0425 34.0225 -83 35 C-83.33 35.33 -83.66 35.66 -84 36 C-81.75026553 36.054138 -79.50015617 36.09285491 -77.25 36.125 C-75.99703125 36.14820313 -74.7440625 36.17140625 -73.453125 36.1953125 C-70.18835242 36.01065342 -68.75059381 35.5735379 -66 34 C-65.01 34 -64.02 34 -63 34 C-63.33 33.01 -63.66 32.02 -64 31 C-64.36795288 26.03263608 -64.2446074 22.89352888 -61 19 C-56.48200177 15.95297794 -52.32557 15.19763763 -47 16 C-35.79195526 18.74568935 -35.79195526 18.74568935 -33.6484375 22.140625 C-33.43445313 22.75421875 -33.22046875 23.3678125 -33 24 C-32.04738281 23.67386719 -31.09476562 23.34773438 -30.11328125 23.01171875 C-25.47332809 21.687854 -20.98049973 21.74250231 -16.1875 21.8125 C-14.90069336 21.8134668 -14.90069336 21.8134668 -13.58789062 21.81445312 C-7.28178621 21.85910689 -7.28178621 21.85910689 -5 23 C-5.05800781 22.26136719 -5.11601563 21.52273437 -5.17578125 20.76171875 C-5.53684608 12.64291804 -3.90656938 7.08763301 0 0 Z M-50 26 C-50.66 27.32 -51.32 28.64 -52 30 C-49.03 29.01 -46.06 28.02 -43 27 C-43 26.67 -43 26.34 -43 26 C-45.31 26 -47.62 26 -50 26 Z M-48 39 C-48.2104238 41.31901751 -48.2104238 41.31901751 -45.8125 43.6875 C-43.2769646 46.27124293 -43.2769646 46.27124293 -40.4375 46 C-37.97549825 45.15571963 -37.97549825 45.15571963 -36.34765625 43.47265625 C-33.01314458 41.38095758 -29.82347272 41.42652514 -26 41.4375 C-25.24831543 41.4370166 -24.49663086 41.4365332 -23.72216797 41.43603516 C-15.17616946 41.68904768 -8.98009876 45.34660083 -2 50 C-1.9727585 48.58344207 -1.95349533 47.16672955 -1.9375 45.75 C-1.92589844 44.96109375 -1.91429687 44.1721875 -1.90234375 43.359375 C-1.91918208 41.01614759 -1.91918208 41.01614759 -2.53515625 38.87109375 C-3.15311091 36.38369642 -2.53501921 34.47446383 -2 32 C-4.25554563 29.74445437 -8.76221085 30.63325481 -11.79467773 30.60620117 C-23.98664673 30.8144182 -36.95701103 33.83448664 -48 39 Z M-36 58 C-35.40847626 61.33005959 -34.35501607 63.04026511 -32.0625 65.5 C-28.87181736 69.01437508 -25.78422667 72.60023809 -22.75 76.25 C-21.50476563 77.74273437 -21.50476563 77.74273437 -20.234375 79.265625 C-18.42964294 81.47421318 -16.6862019 83.70063377 -15 86 C-14.32308716 78.00240017 -14.43954085 71.85164756 -19.08984375 65.1015625 C-23.14208703 60.64326621 -27.56685695 58.2134336 -33.5625 57.6875 C-34.7690625 57.8421875 -34.7690625 57.8421875 -36 58 Z M-66 103 C-68.32749345 106.49124017 -68.50299316 107.89222251 -68 112 C-65.14916368 116.1052043 -61.73931075 116.9063129 -57 118 C-57.8971875 117.071875 -57.8971875 117.071875 -58.8125 116.125 C-61.68944158 112.01508346 -62.76502183 107.81828604 -64 103 C-64.66 103 -65.32 103 -66 103 Z M-58 108 C-58 108.66 -58 109.32 -58 110 C-57.34 109.67 -56.68 109.34 -56 109 C-56.66 108.67 -57.32 108.34 -58 108 Z " fill="#DBEBEB" transform="translate(101,0)"/>
<path d="M0 0 C0.99 0 1.98 0 3 0 C3.25394531 0.61488281 3.50789063 1.22976562 3.76953125 1.86328125 C4.11371094 2.67152344 4.45789063 3.47976562 4.8125 4.3125 C5.14894531 5.11300781 5.48539062 5.91351563 5.83203125 6.73828125 C6.9898003 8.98024873 8.19283399 10.27793599 10 12 C11.52698916 16.45371837 10.80606655 20.45671579 10 25 C9.01 26.485 9.01 26.485 8 28 C8.804375 28.78375 9.60875 29.5675 10.4375 30.375 C13.26996596 33.27655049 13.91288793 33.97643312 14.25 37.9375 C14 41 14 41 13 42.8125 C9.81931546 44.70103144 6.66530121 44.69956547 3 45 C3 46.65 3 48.3 3 50 C1.68 50.33 0.36 50.66 -1 51 C-1.04898438 50.40832031 -1.09796875 49.81664062 -1.1484375 49.20703125 C-1.62407596 44.11329526 -1.62407596 44.11329526 -3.125 39.25 C-4.21774191 36.44009223 -3.67778093 34.88295551 -3 32 C-18.65674844 30.99061077 -33.06368836 34.61540371 -48 39 C-48 39.66 -48 40.32 -48 41 C-47.4225 41.2475 -46.845 41.495 -46.25 41.75 C-43.67060021 43.18299988 -41.93878408 44.78424676 -40 47 C-40 47.66 -40 48.32 -40 49 C-43.63423209 51.32590854 -46.77088331 51.16265833 -51 51 C-51.2475 50.4225 -51.495 49.845 -51.75 49.25 C-53.22681572 46.5917317 -54.63335215 44.91979826 -57 43 C-59.40245436 42.9586857 -59.40245436 42.9586857 -62 43.75 C-67.80461011 44.94380528 -73.34602583 45.27554582 -79.25 45.3125 C-80.50876953 45.33812012 -80.50876953 45.33812012 -81.79296875 45.36425781 C-88.50046903 45.36160872 -94.286648 44.374183 -99.5 39.8125 C-101.63539403 35.8086362 -101.58216038 33.51174294 -101 29 C-99.5 27 -99.5 27 -97 26 C-92.69538278 25.59003646 -90.07835539 25.58701283 -86.0625 27.125 C-84 29 -84 29 -83.125 32.125 C-83.08375 33.07375 -83.0425 34.0225 -83 35 C-83.33 35.33 -83.66 35.66 -84 36 C-81.75026553 36.054138 -79.50015617 36.09285491 -77.25 36.125 C-75.99703125 36.14820313 -74.7440625 36.17140625 -73.453125 36.1953125 C-70.18835242 36.01065342 -68.75059381 35.5735379 -66 34 C-65.01 34 -64.02 34 -63 34 C-63.33 33.01 -63.66 32.02 -64 31 C-64.36795288 26.03263608 -64.2446074 22.89352888 -61 19 C-56.48200177 15.95297794 -52.32557 15.19763763 -47 16 C-35.79195526 18.74568935 -35.79195526 18.74568935 -33.6484375 22.140625 C-33.43445313 22.75421875 -33.22046875 23.3678125 -33 24 C-32.04738281 23.67386719 -31.09476562 23.34773438 -30.11328125 23.01171875 C-25.47332809 21.687854 -20.98049973 21.74250231 -16.1875 21.8125 C-14.90069336 21.8134668 -14.90069336 21.8134668 -13.58789062 21.81445312 C-7.28178621 21.85910689 -7.28178621 21.85910689 -5 23 C-5.05800781 22.26136719 -5.11601563 21.52273437 -5.17578125 20.76171875 C-5.53684608 12.64291804 -3.90656938 7.08763301 0 0 Z M-50 26 C-50.66 27.32 -51.32 28.64 -52 30 C-49.03 29.01 -46.06 28.02 -43 27 C-43 26.67 -43 26.34 -43 26 C-45.31 26 -47.62 26 -50 26 Z " fill="#B4CDCD" transform="translate(101,0)"/>
<path d="M0 0 C5.88812631 4.26312382 8.62569608 9.19366211 11 16 C12.58558048 26.99676785 9.98653689 35.92851681 3.6640625 44.8671875 C-0.05607225 49.63524753 -3.84440085 53.44979259 -9.125 56.4375 C-12.22243458 58.24136995 -13.73968705 59.81855624 -15.5 62.9375 C-18.83813205 68.84342594 -23.28317869 72.16993885 -29.74609375 74.14453125 C-33.93417215 75.09991995 -37.96452752 75.34669655 -42.25 75.3125 C-42.98726318 75.30758545 -43.72452637 75.3026709 -44.48413086 75.29760742 C-54.40809599 75.08728537 -63.01403753 73.05415297 -71 67 C-71.62777344 66.55785156 -72.25554687 66.11570312 -72.90234375 65.66015625 C-77.7065608 61.99351279 -80.45531904 57.87183356 -82 52 C-81.92460171 47.40070408 -81.29842677 44.29842677 -78 41 C-73.09357516 39.36452505 -69.31822976 39.42477247 -64.5625 41.5 C-63.716875 41.995 -62.87125 42.49 -62 43 C-61.773125 42.4225 -61.54625 41.845 -61.3125 41.25 C-59.08951132 37.43916226 -56.14211008 35.38070336 -52 34 C-45.66430983 33.23534774 -42.13667045 34.37612848 -36.98828125 38.1640625 C-32.84374137 41.99104431 -30.87725357 46.39314193 -30.4375 52 C-30.78641737 58.11206972 -34.30144228 62.45944765 -38.6875 66.4375 C-43.08608514 68.51230431 -47.18383557 68.80963777 -52 69 C-36.86557604 69.87960382 -36.86557604 69.87960382 -23 65 C-20.44405632 62.05811611 -18.46583321 58.88185189 -16.6484375 55.44140625 C-14.76466335 52.65145639 -13.29743402 51.79793812 -10.3125 50.3125 C-1.82997312 45.45826564 3.47213417 38.06628589 6.3671875 28.78125 C8.71728343 18.45243333 6.04528458 12.0563557 1 3 C0.505 1.515 0.505 1.515 0 0 Z M-66 50 C-68.32749345 53.49124017 -68.50299316 54.89222251 -68 59 C-65.14916368 63.1052043 -61.73931075 63.9063129 -57 65 C-57.8971875 64.071875 -57.8971875 64.071875 -58.8125 63.125 C-61.68944158 59.01508346 -62.76502183 54.81828604 -64 50 C-64.66 50 -65.32 50 -66 50 Z M-58 55 C-58 55.66 -58 56.32 -58 57 C-57.34 56.67 -56.68 56.34 -56 56 C-56.66 55.67 -57.32 55.34 -58 55 Z " fill="#99B1B1" transform="translate(101,53)"/>
<path d="M0 0 C1.65 0 3.3 0 5 0 C5 0.66 5 1.32 5 2 C6.9914056 2.38133299 8.99279077 2.71325582 11 3 C11.33 2.67 11.66 2.34 12 2 C15.50377414 3.60984217 16.881106 4.79091056 18.8125 8.1875 C20.38801717 13.24573932 21.11125884 17.24407807 19.12109375 22.1796875 C16.89814069 26.18540489 14.61830639 29.09554746 10.0859375 30.58984375 C4.83548446 31.6222362 -0.49203361 32.49438412 -5.26171875 29.65234375 C-6.97339673 28.18370321 -8.51876783 26.69861437 -10 25 C-9.505 23.515 -9.505 23.515 -9 22 C-7.68 22.99 -6.36 23.98 -5 25 C-5 24.01 -5 23.02 -5 22 C-1.535 21.505 -1.535 21.505 2 21 C2 18.36 2 15.72 2 13 C1.34 12.67 0.68 12.34 0 12 C0 12.66 0 13.32 0 14 C0.66 14 1.32 14 2 14 C2 15.32 2 16.64 2 18 C1.01 18 0.02 18 -1 18 C-1 18.66 -1 19.32 -1 20 C-1.66 20 -2.32 20 -3 20 C-4.1577506 16.52674819 -4.06866652 13.63932552 -4 10 C-4.99 10.495 -4.99 10.495 -6 11 C-5.67 13.31 -5.34 15.62 -5 18 C-5.66 18 -6.32 18 -7 18 C-6.67 19.32 -6.34 20.64 -6 22 C-6.66 22 -7.32 22 -8 22 C-10.45397487 16.93867683 -10.82225868 12.41538487 -9 7.0625 C-8.505 6.0415625 -8.505 6.0415625 -8 5 C-7.34 5 -6.68 5 -6 5 C-6 4.34 -6 3.68 -6 3 C-4.02 2.67 -2.04 2.34 0 2 C0 1.34 0 0.68 0 0 Z " fill="#94A9A9" transform="translate(50,89)"/>
<path d="M0 0 C2 1 2 1 3.4375 4.375 C4.68640253 7.88652646 4.68640253 7.88652646 6.625 9.625 C8.65397161 11.65397161 8.74704813 13.15429143 9 16 C8.79344974 20.22188736 8.40013724 23.39979414 6 27 C6.804375 27.78375 7.60875 28.5675 8.4375 29.375 C11.26996596 32.27655049 11.91288793 32.97643312 12.25 36.9375 C12 40 12 40 11 41.8125 C7.81931546 43.70103144 4.66530121 43.69956547 1 44 C1 45.65 1 47.3 1 49 C-0.98 49.495 -0.98 49.495 -3 50 C-3.04898438 49.40832031 -3.09796875 48.81664062 -3.1484375 48.20703125 C-3.62407596 43.11329526 -3.62407596 43.11329526 -5.125 38.25 C-6.21774191 35.44009223 -5.67778093 33.88295551 -5 31 C-20.65674844 29.99061077 -35.06368836 33.61540371 -50 38 C-49.67 39.32 -49.34 40.64 -49 42 C-50.70884005 40.37660195 -52.37446717 38.70680947 -54 37 C-54 36.34 -54 35.68 -54 35 C-48.9759625 32.74148773 -43.97841436 30.95969122 -38.6875 29.4375 C-37.93621826 29.22134033 -37.18493652 29.00518066 -36.41088867 28.7824707 C-26.00692772 25.83092076 -16.88464425 24.71768934 -6 25 C-5.67 23.68 -5.34 22.36 -5 21 C-4.34 21.33 -3.68 21.66 -3 22 C-1.02 22 0.96 22 3 22 C3.33 18.04 3.66 14.08 4 10 C3.34 12.97 2.68 15.94 2 19 C1.01 18.34 0.02 17.68 -1 17 C-1 16.34 -1 15.68 -1 15 C-1.66 15 -2.32 15 -3 15 C-4.35439668 12.29120665 -4.06501451 9.99066732 -4 7 C-1.525 8.98 -1.525 8.98 1 11 C0.505 5.555 0.505 5.555 0 0 Z " fill="#BDD5D5" transform="translate(103,1)"/>
<path d="M0 0 C5.88812631 4.26312382 8.62569608 9.19366211 11 16 C12.58558048 26.99676785 9.98653689 35.92851681 3.6640625 44.8671875 C-0.05607225 49.63524753 -3.84440085 53.44979259 -9.125 56.4375 C-12.22243458 58.24136995 -13.73968705 59.81855624 -15.5 62.9375 C-18.83813205 68.84342594 -23.28317869 72.16993885 -29.74609375 74.14453125 C-33.93417215 75.09991995 -37.96452752 75.34669655 -42.25 75.3125 C-42.98726318 75.30758545 -43.72452637 75.3026709 -44.48413086 75.29760742 C-57.59890781 75.01966138 -66.67729037 70.8197632 -76.5546875 62.52734375 C-78.21628986 60.77143422 -79.16006582 59.26782229 -80 57 C-79.67 56.01 -79.34 55.02 -79 54 C-78.61070313 54.59167969 -78.22140625 55.18335938 -77.8203125 55.79296875 C-73.37392938 62.07322878 -69.09784549 65.15857954 -62 68 C-60.84612793 68.51361084 -60.84612793 68.51361084 -59.66894531 69.03759766 C-50.67659504 72.28017402 -36.11079868 71.58541593 -27.375 67.9375 C-21.99424275 64.86402539 -19.46397029 60.80343871 -16.66796875 55.44921875 C-14.77015533 52.66249974 -13.3018465 51.80013397 -10.3125 50.3125 C-1.82997312 45.45826564 3.47213417 38.06628589 6.3671875 28.78125 C8.71728343 18.45243333 6.04528458 12.0563557 1 3 C0.505 1.515 0.505 1.515 0 0 Z " fill="#2E3333" transform="translate(101,53)"/>
<path d="M0 0 C0.99 0.33 1.98 0.66 3 1 C2.979375 1.886875 2.95875 2.77375 2.9375 3.6875 C2.99286219 6.62169631 3.3305734 9.15493696 4 12 C3.01 12 2.02 12 1 12 C0.34 11.34 -0.32 10.68 -1 10 C-1 11.98 -1 13.96 -1 16 C-0.34 16 0.32 16 1 16 C1.99 17.485 1.99 17.485 3 19 C3.99 14.545 3.99 14.545 5 10 C5.99 10.495 5.99 10.495 7 11 C6.85966889 12.97956441 6.7125877 14.95865141 6.5625 16.9375 C6.44068359 18.59072266 6.44068359 18.59072266 6.31640625 20.27734375 C6 23 6 23 5 24 C-0.52941176 24.23529412 -0.52941176 24.23529412 -3 23 C-3.495 24.485 -3.495 24.485 -4 26 C-5.2375 26.03867187 -5.2375 26.03867187 -6.5 26.078125 C-14.07549243 26.45013579 -20.79610286 27.5625519 -28.08129883 29.55102539 C-33.45421572 30.97424963 -38.66831139 31.57431438 -44.23046875 31.82421875 C-46.90416745 31.99391754 -49.38939565 32.41297197 -52 33 C-52 32.01 -52 31.02 -52 30 C-48.04 28.515 -48.04 28.515 -44 27 C-45.32 26.34 -46.64 25.68 -48 25 C-46.02 25 -44.04 25 -42 25 C-42.33 23.68 -42.66 22.36 -43 21 C-44.65 20.67 -46.3 20.34 -48 20 C-48 19.34 -48 18.68 -48 18 C-55.44993402 19.9588571 -55.44993402 19.9588571 -61 25 C-62.26784124 28.13350717 -62.26784124 28.13350717 -63 31 C-63.33 31 -63.66 31 -64 31 C-64.29216602 26.03317768 -64.24708889 22.89650666 -61 19 C-56.48200177 15.95297794 -52.32557 15.19763763 -47 16 C-35.79195526 18.74568935 -35.79195526 18.74568935 -33.6484375 22.140625 C-33.43445313 22.75421875 -33.22046875 23.3678125 -33 24 C-31.57107422 23.51080078 -31.57107422 23.51080078 -30.11328125 23.01171875 C-25.47332809 21.687854 -20.98049973 21.74250231 -16.1875 21.8125 C-15.32962891 21.81314453 -14.47175781 21.81378906 -13.58789062 21.81445312 C-7.28178621 21.85910689 -7.28178621 21.85910689 -5 23 C-5.05800781 22.26136719 -5.11601563 21.52273437 -5.17578125 20.76171875 C-5.53684608 12.64291804 -3.90656938 7.08763301 0 0 Z " fill="#C8DEDE" transform="translate(101,0)"/>
<path d="M0 0 C2.9375 1.125 2.9375 1.125 5 3 C5.875 6.125 5.875 6.125 6 9 C5.67 9.33 5.34 9.66 5 10 C7.24973447 10.054138 9.49984383 10.09285491 11.75 10.125 C13.62945313 10.15980469 13.62945313 10.15980469 15.546875 10.1953125 C18.81164758 10.01065342 20.24940619 9.5735379 23 8 C23.99 8 24.98 8 26 8 C26.33 7.01 26.66 6.02 27 5 C27.375 7.25 27.375 7.25 27 10 C20.51276298 15.18978962 15.1293231 15.2354946 7.1875 15.3125 C6.20201172 15.34150391 5.21652344 15.37050781 4.20117188 15.40039062 C-1.89801561 15.45364075 -5.34654828 15.03898628 -10 11 C-12 9 -12 9 -12.375 6.0625 C-12 3 -12 3 -10.5 1.125 C-6.98245304 -0.45789613 -3.75459442 -0.53637063 0 0 Z " fill="#C3DADA" transform="translate(12,26)"/>
<path d="M0 0 C-1 2 -2 4 -3 6 C-3.07033769 7.87379605 -3.0843022 9.75001102 -3.0625 11.625 C-3.04896484 13.12933594 -3.04896484 13.12933594 -3.03515625 14.6640625 C-3.02355469 15.43492188 -3.01195312 16.20578125 -3 17 C-2.34 16.34 -1.68 15.68 -1 15 C-0.67 15.99 -0.34 16.98 0 18 C2.50447516 19.21869929 2.50447516 19.21869929 5 20 C5 20.66 5 21.32 5 22 C5.66 22 6.32 22 7 22 C7 22.66 7 23.32 7 24 C7.598125 24.12375 8.19625 24.2475 8.8125 24.375 C11 25 11 25 14 27 C14 27.99 14 28.98 14 30 C15.32 30 16.64 30 18 30 C19.515625 32.1796875 19.515625 32.1796875 21 35 C22.86822313 37.58254373 24.7631463 40.14258184 26.671875 42.6953125 C27.11015625 43.45585938 27.5484375 44.21640625 28 45 C27.67 45.99 27.34 46.98 27 48 C26.443125 47.05125 25.88625 46.1025 25.3125 45.125 C20.12538561 37.83939488 11.6099892 32.64034515 4.1875 27.8125 C-3.21837912 22.93877808 -9.86958836 18.07521809 -12 9 C-11.77895161 6.23946545 -11.37946866 5.32331411 -9.2578125 3.515625 C-8.55398437 3.09796875 -7.85015625 2.6803125 -7.125 2.25 C-6.42632812 1.82203125 -5.72765625 1.3940625 -5.0078125 0.953125 C-3 0 -3 0 0 0 Z " fill="#C6DEDE" transform="translate(46,51)"/>
<path d="M0 0 C2.4375 1.5 2.4375 1.5 4 3 C2.79180633 6.624581 2.19658087 6.40170957 -1 8 C-2.04976964 11.14930893 -2.10131595 13.38814456 -2.0625 16.6875 C-2.05347656 17.68136719 -2.04445313 18.67523438 -2.03515625 19.69921875 C-2.02355469 20.45847656 -2.01195312 21.21773437 -2 22 C-8.42928965 20.39267759 -10.45224452 17.32163322 -14 12 C-13.75317254 7.47482982 -13.2636109 4.2636109 -10 1 C-6.43528609 -0.18823797 -3.7441664 -0.26274852 0 0 Z " fill="#BDD7D7" transform="translate(33,93)"/>
<path d="M0 0 C3 1 3 1 4.6875 4.0625 C6.53786246 8.91104335 7.07721816 13.32849896 5.12109375 18.1796875 C2.89814069 22.18540489 0.61830639 25.09554746 -3.9140625 26.58984375 C-9.16451554 27.6222362 -14.49203361 28.49438412 -19.26171875 25.65234375 C-20.97339673 24.18370321 -22.51876783 22.69861437 -24 21 C-23.505 19.515 -23.505 19.515 -23 18 C-21.68 18.99 -20.36 19.98 -19 21 C-19 20.01 -19 19.02 -19 18 C-15.535 17.505 -15.535 17.505 -12 17 C-12 19.31 -12 21.62 -12 24 C-10.37181054 23.77169299 -8.7473651 23.51656424 -7.125 23.25 C-6.22007813 23.11078125 -5.31515625 22.9715625 -4.3828125 22.828125 C-1.85822162 22.22734272 -1.85822162 22.22734272 -0.75 20.03125 C-0.5025 19.3609375 -0.255 18.690625 0 18 C0.37125 17.4225 0.7425 16.845 1.125 16.25 C2.46160487 12.81301605 2.12238184 9.67145533 2 6 C1.54625 6.495 1.0925 6.99 0.625 7.5 C-1 9 -1 9 -3 9 C-3.33 6.69 -3.66 4.38 -4 2 C-2.68 2.33 -1.36 2.66 0 3 C0 2.01 0 1.02 0 0 Z " fill="#131616" transform="translate(64,93)"/>
<path d="M0 0 C5.88812631 4.26312382 8.62569608 9.19366211 11 16 C12.58511249 26.99352212 9.98623718 35.9143513 3.67578125 44.85546875 C-0.11450599 49.7059762 -3.85925971 54.32525265 -10 56 C-10.33 54.35 -10.66 52.7 -11 51 C-10.49210937 50.6596875 -9.98421875 50.319375 -9.4609375 49.96875 C-0.65664439 43.76947245 4.40504853 36.52396987 7 26 C8.51411538 16.88920229 5.36639918 10.83774701 1 3 C0.67 2.01 0.34 1.02 0 0 Z " fill="#222626" transform="translate(101,53)"/>
<path d="M0 0 C1.3003418 -0.00580078 1.3003418 -0.00580078 2.62695312 -0.01171875 C3.45517578 -0.01042969 4.28339844 -0.00914063 5.13671875 -0.0078125 C5.89041748 -0.00668457 6.64411621 -0.00555664 7.4206543 -0.00439453 C9.3125 0.125 9.3125 0.125 11.3125 1.125 C11.3125 1.785 11.3125 2.445 11.3125 3.125 C10.19875 3.13917969 9.085 3.15335938 7.9375 3.16796875 C-1.64974544 3.41976354 -9.91192204 4.69469717 -18.9609375 7.84765625 C-24.12368546 9.6172774 -29.37640089 10.88775532 -34.6875 12.125 C-34.3575 13.445 -34.0275 14.765 -33.6875 16.125 C-35.39634005 14.50160195 -37.06196717 12.83180947 -38.6875 11.125 C-38.6875 10.465 -38.6875 9.805 -38.6875 9.125 C-33.56507397 6.81382625 -28.4615782 5.0453192 -23.0625 3.5 C-21.95648438 3.17515625 -21.95648438 3.17515625 -20.828125 2.84375 C-13.70989194 0.77716621 -7.41730601 -0.03353718 0 0 Z " fill="#272E2E" transform="translate(87.6875,26.875)"/>
<path d="M0 0 C0.45060791 0.35586182 0.90121582 0.71172363 1.36547852 1.07836914 C7.22511512 5.26612845 11.86475057 5.68439269 18.9375 5.4375 C20.34418945 5.42879883 20.34418945 5.42879883 21.77929688 5.41992188 C27.09724087 5.3275323 31.99541358 4.7525371 37.14550781 3.41601562 C39.80151706 2.8201968 41.49520571 2.92651673 44 4 C46 6.3125 46 6.3125 48 9 C48.9075 9.721875 49.815 10.44375 50.75 11.1875 C51.4925 11.785625 52.235 12.38375 53 13 C53 13.66 53 14.32 53 15 C51.3125 14.875 51.3125 14.875 49 14 C48.34 12.948125 47.68 11.89625 47 10.8125 C45.76632936 9.09893329 45.76632936 9.09893329 44 8 C41.14513356 8.06344148 38.57852101 8.70571453 35.79296875 9.33203125 C31.0792934 10.16214297 26.52704013 10.29053256 21.75 10.3125 C20.49110962 10.33787842 20.49110962 10.33787842 19.20678711 10.36376953 C13.47184365 10.36263693 9.22015068 9.41460714 4 7 C0 2.9 0 2.9 0 0 Z " fill="#222626" transform="translate(0,35)"/>
<path d="M0 0 C2.25315168 1.91176506 2.76299983 2.8548317 3.0625 5.75 C2.4025 5.75 1.7425 5.75 1.0625 5.75 C1.0625 5.09 1.0625 4.43 1.0625 3.75 C-1.9075 3.255 -1.9075 3.255 -4.9375 2.75 C-4.9375 2.09 -4.9375 1.43 -4.9375 0.75 C-6.5875 0.75 -8.2375 0.75 -9.9375 0.75 C-9.9375 1.41 -9.9375 2.07 -9.9375 2.75 C-11.9175 3.08 -13.8975 3.41 -15.9375 3.75 C-15.9375 4.41 -15.9375 5.07 -15.9375 5.75 C-16.9275 6.245 -16.9275 6.245 -17.9375 6.75 C-19.88621789 11.81666651 -19.18813677 17.59112332 -17.9375 22.75 C-17.2775 22.09 -16.6175 21.43 -15.9375 20.75 C-16.2675 20.09 -16.5975 19.43 -16.9375 18.75 C-16.2775 18.75 -15.6175 18.75 -14.9375 18.75 C-15.288125 18.1725 -15.63875 17.595 -16 17 C-17.08667407 14.39198224 -16.86815133 13.35582371 -15.9375 10.75 C-15.2775 10.75 -14.6175 10.75 -13.9375 10.75 C-13.6075 14.05 -13.2775 17.35 -12.9375 20.75 C-12.2775 20.75 -11.6175 20.75 -10.9375 20.75 C-10.9375 20.09 -10.9375 19.43 -10.9375 18.75 C-9.9475 18.75 -8.9575 18.75 -7.9375 18.75 C-7.9375 17.43 -7.9375 16.11 -7.9375 14.75 C-8.5975 14.75 -9.2575 14.75 -9.9375 14.75 C-9.9375 14.09 -9.9375 13.43 -9.9375 12.75 C-8.9475 13.08 -7.9575 13.41 -6.9375 13.75 C-6.9375 18.7 -6.9375 23.65 -6.9375 28.75 C-7.2675 28.75 -7.5975 28.75 -7.9375 28.75 C-7.9375 26.44 -7.9375 24.13 -7.9375 21.75 C-10.2475 22.08 -12.5575 22.41 -14.9375 22.75 C-14.6075 24.07 -14.2775 25.39 -13.9375 26.75 C-14.535625 26.42 -15.13375 26.09 -15.75 25.75 C-17.99136471 24.54212012 -17.99136471 24.54212012 -20.9375 24.75 C-21.9275 21.12 -22.9175 17.49 -23.9375 13.75 C-23.2775 13.75 -22.6175 13.75 -21.9375 13.75 C-22.2675 11.77 -22.5975 9.79 -22.9375 7.75 C-22.2775 7.75 -21.6175 7.75 -20.9375 7.75 C-20.710625 7.1725 -20.48375 6.595 -20.25 6 C-15.95373484 -1.365026 -7.5525418 -3.21384757 0 0 Z " fill="#ACC1C1" transform="translate(59.9375,88.25)"/>
<path d="M0 0 C6.3326571 -0.69083532 9.69070784 0.38472848 14.81640625 4.16015625 C24.04295086 11.93422156 24.04295086 11.93422156 24.9375 18 C24.958125 18.99 24.97875 19.98 25 21 C23.05870867 18.57338583 21.71548687 16.3981453 20.375 13.5625 C17.80260746 8.96187489 13.75648541 6.96338517 9 5 C5.64745324 4.14360715 5.64745324 4.14360715 3 4 C5.75629261 9.24158283 8.81028698 13.22050919 12.9375 17.4375 C23.6616722 28.75205313 23.6616722 28.75205313 24.3125 35 C24.209375 35.66 24.10625 36.32 24 37 C23.34 37 22.68 37 22 37 C21.34 34.36 20.68 31.72 20 29 C19.34 29 18.68 29 18 29 C17.505 28.01 17.01 27.02 16.5 26 C14.21960753 21.97673614 11.21871143 19.04823712 7.90625 15.859375 C5.70968521 13.7168241 3.77018548 11.50776277 2 9 C2 8.34 2 7.68 2 7 C1.34 7 0.68 7 0 7 C0 4.69 0 2.38 0 0 Z " fill="#3B3E3E" transform="translate(62,54)"/>
<path d="M0 0 C0.99 0.66 1.98 1.32 3 2 C2.67 3.32 2.34 4.64 2 6 C0.68 5.34 -0.64 4.68 -2 4 C-1.67 6.31 -1.34 8.62 -1 11 C0.98491642 10.73323796 0.98491642 10.73323796 3 10 C3.33 9.01 3.66 8.02 4 7 C5 8 5 8 5.25 11.75 C5.17821905 16.77466642 3.27743044 19.35758944 0.25 23.25 C-2.73796981 25.57397652 -5.28341971 25.71410921 -9 26 C-9 24 -9 24 -7.5625 22.5 C-7.046875 22.005 -6.53125 21.51 -6 21 C-5.67 20.34 -5.34 19.68 -5 19 C-5.66 18.67 -6.32 18.34 -7 18 C-6.67 17.34 -6.34 16.68 -6 16 C-5.01 16 -4.02 16 -3 16 C-3 14.68 -3 13.36 -3 12 C-3.99 12 -4.98 12 -6 12 C-6 11.01 -6 10.02 -6 9 C-5.34 9 -4.68 9 -4 9 C-4 8.01 -4 7.02 -4 6 C-5.65 6.33 -7.3 6.66 -9 7 C-9 6.34 -9 5.68 -9 5 C-7.68 5 -6.36 5 -5 5 C-5 4.34 -5 3.68 -5 3 C-4.01 3 -3.02 3 -2 3 C-1.67 2.34 -1.34 1.68 -1 1 C-0.67 0.67 -0.34 0.34 0 0 Z " fill="#92A8A8" transform="translate(62,91)"/>
<path d="M0 0 C4.92213122 4.04317921 7.46934917 9.40749386 8.390625 15.64453125 C8.81717842 26.29313262 5.0425939 34.74091 -1.7734375 42.76953125 C-5.15164234 46.15366277 -8.88906859 48.59992959 -13 51 C-16.32901247 53.21934164 -16.75023244 54.34683329 -18 58 C-19.16116378 54.51650865 -19.37334311 53.39296533 -18 50 C-14.57742111 47.18996319 -11.49230683 45 -7 45 C-7 44.34 -7 43.68 -7 43 C-6.34 43 -5.68 43 -5 43 C-5 42.34 -5 41.68 -5 41 C-4.01 41 -3.02 41 -2 41 C-1.67 39.35 -1.34 37.7 -1 36 C-0.34 36 0.32 36 1 36 C1 35.01 1 34.02 1 33 C1.66 33 2.32 33 3 33 C3.144375 31.948125 3.28875 30.89625 3.4375 29.8125 C4 26 4 26 4.625 23.375 C5.05360533 20.66049955 4.68004494 18.64461921 4 16 C3.67 16 3.34 16 3 16 C2.95101562 15.26394531 2.90203125 14.52789062 2.8515625 13.76953125 C2.77679688 12.79371094 2.70203125 11.81789063 2.625 10.8125 C2.55539063 9.84957031 2.48578125 8.88664062 2.4140625 7.89453125 C1.99784147 4.98491062 1.20125904 2.67109226 0 0 Z " fill="#B1CECE" transform="translate(101,55)"/>
<path d="M0 0 C0.99 0.33 1.98 0.66 3 1 C2.979375 1.886875 2.95875 2.77375 2.9375 3.6875 C2.99286219 6.62169631 3.3305734 9.15493696 4 12 C3.01 12 2.02 12 1 12 C0.34 11.34 -0.32 10.68 -1 10 C-1 11.98 -1 13.96 -1 16 C-0.34 16 0.32 16 1 16 C1.66 16.99 2.32 17.98 3 19 C3.66 16.03 4.32 13.06 5 10 C5.66 10.33 6.32 10.66 7 11 C6.85966889 12.97956441 6.7125877 14.95865141 6.5625 16.9375 C6.48128906 18.03964844 6.40007812 19.14179688 6.31640625 20.27734375 C6 23 6 23 5 24 C0.96839809 24.26293056 -0.55892734 24.29404844 -4 22 C-5.44169688 14.65017278 -3.2961889 6.59237781 0 0 Z " fill="#C0D5D5" transform="translate(101,0)"/>
<path d="M0 0 C2 1 2 1 3.4375 4.375 C4.68640253 7.88652646 4.68640253 7.88652646 6.625 9.625 C8.65397161 11.65397161 8.74704813 13.15429143 9 16 C8.96146512 18.86259142 8.60753425 21.14926235 8 24 C6 25.375 6 25.375 4 26 C3.67 26.66 3.34 27.32 3 28 C1.35 27.01 -0.3 26.02 -2 25 C-1.0409375 24.5359375 -1.0409375 24.5359375 -0.0625 24.0625 C1.93610821 23.1654837 1.93610821 23.1654837 3 22 C3.23427778 19.98405418 3.41336124 17.961526 3.5625 15.9375 C3.64628906 14.83277344 3.73007813 13.72804688 3.81640625 12.58984375 C3.87699219 11.73519531 3.93757813 10.88054688 4 10 C3.34 12.97 2.68 15.94 2 19 C1.01 18.34 0.02 17.68 -1 17 C-1 16.34 -1 15.68 -1 15 C-1.66 15 -2.32 15 -3 15 C-4.35439668 12.29120665 -4.06501451 9.99066732 -4 7 C-1.525 8.98 -1.525 8.98 1 11 C0.67 7.37 0.34 3.74 0 0 Z " fill="#444A4A" transform="translate(103,1)"/>
<path d="M0 0 C0 3.3 0 6.6 0 10 C-0.99 10 -1.98 10 -3 10 C-3 10.66 -3 11.32 -3 12 C-3.99 12 -4.98 12 -6 12 C-6 11.01 -6 10.02 -6 9 C-6.99 9.495 -6.99 9.495 -8 10 C-7.67 12.31 -7.34 14.62 -7 17 C-7.66 17 -8.32 17 -9 17 C-8.67 18.32 -8.34 19.64 -8 21 C-8.66 21 -9.32 21 -10 21 C-12.45397487 15.93867683 -12.82225868 11.41538487 -11 6.0625 C-10.505 5.0415625 -10.505 5.0415625 -10 4 C-9.34 4 -8.68 4 -8 4 C-8 3.34 -8 2.68 -8 2 C-2.25 0 -2.25 0 0 0 Z " fill="#788D8D" transform="translate(52,90)"/>
<path d="M0 0 C3.875 1.75 3.875 1.75 5 4 C5.44239631 9.19815668 5.44239631 9.19815668 4 11.8125 C0.81931546 13.70103144 -2.33469879 13.69956547 -6 14 C-6 15.65 -6 17.3 -6 19 C-7.32 19.33 -8.64 19.66 -10 20 C-10.06058594 19.38511719 -10.12117188 18.77023438 -10.18359375 18.13671875 C-10.26738281 17.32847656 -10.35117188 16.52023438 -10.4375 15.6875 C-10.51871094 14.88699219 -10.59992188 14.08648437 -10.68359375 13.26171875 C-10.95265693 10.83912821 -10.95265693 10.83912821 -12 8 C-10.84371094 8.01740234 -10.84371094 8.01740234 -9.6640625 8.03515625 C-8.15972656 8.04869141 -8.15972656 8.04869141 -6.625 8.0625 C-5.12839844 8.07990234 -5.12839844 8.07990234 -3.6015625 8.09765625 C-1.01567547 8.18006602 -1.01567547 8.18006602 1 7 C1.15149298 3.37114676 1.15149298 3.37114676 0 0 Z " fill="#2B2E2E" transform="translate(110,31)"/>
<path d="M0 0 C2.54438771 1.96281337 4.90623541 3.90087249 7.1171875 6.23828125 C10.78591579 9.75290307 14.7892274 12.58097063 18.9375 15.5 C34.45129113 26.47037568 34.45129113 26.47037568 38 33 C37.67 33.99 37.34 34.98 37 36 C36.443125 35.05125 35.88625 34.1025 35.3125 33.125 C30.12538561 25.83939488 21.6099892 20.64034515 14.1875 15.8125 C3.11806012 8.56222111 3.11806012 8.56222111 0.5 2.5625 C0.335 1.716875 0.17 0.87125 0 0 Z " fill="#363A3A" transform="translate(36,63)"/>
<path d="M0 0 C1.98 0 3.96 0 6 0 C6 0.33 6 0.66 6 1 C4.35 1 2.7 1 1 1 C3.75629261 6.24158283 6.81028698 10.22050919 10.9375 14.4375 C21.6616722 25.75205313 21.6616722 25.75205313 22.3125 32 C22.209375 32.66 22.10625 33.32 22 34 C21.34 34 20.68 34 20 34 C19.34 31.36 18.68 28.72 18 26 C17.34 26 16.68 26 16 26 C15.505 25.01 15.01 24.02 14.5 23 C12.21960753 18.97673614 9.21871143 16.04823712 5.90625 12.859375 C3.70968521 10.7168241 1.77018548 8.50776277 0 6 C0 5.34 0 4.68 0 4 C-0.66 4 -1.32 4 -2 4 C-1.34 2.68 -0.68 1.36 0 0 Z " fill="#5E6464" transform="translate(64,57)"/>
<path d="M0 0 C0.86689453 -0.00386719 1.73378906 -0.00773437 2.62695312 -0.01171875 C3.45517578 -0.01042969 4.28339844 -0.00914063 5.13671875 -0.0078125 C5.89041748 -0.00668457 6.64411621 -0.00555664 7.4206543 -0.00439453 C9.3125 0.125 9.3125 0.125 11.3125 1.125 C11.3125 1.785 11.3125 2.445 11.3125 3.125 C-3.0425 4.115 -3.0425 4.115 -17.6875 5.125 C-17.3575 4.465 -17.0275 3.805 -16.6875 3.125 C-16.0275 3.125 -15.3675 3.125 -14.6875 3.125 C-14.6875 2.465 -14.6875 1.805 -14.6875 1.125 C-9.81106054 -0.14186881 -4.99941298 -0.02260473 0 0 Z " fill="#161A1A" transform="translate(87.6875,26.875)"/>
<path d="M0 0 C2.64 0.66 5.28 1.32 8 2 C7.01 2.66 6.02 3.32 5 4 C5.99 4.66 6.98 5.32 8 6 C7.34 6 6.68 6 6 6 C6 7.32 6 8.64 6 10 C-2.25 10 -10.5 10 -19 10 C-15.89914429 7.93276286 -15.27068319 7.75502577 -11.76953125 7.8046875 C-10.96708984 7.81113281 -10.16464844 7.81757813 -9.33789062 7.82421875 C-8.50451172 7.84097656 -7.67113281 7.85773437 -6.8125 7.875 C-5.5450293 7.88853516 -5.5450293 7.88853516 -4.25195312 7.90234375 C-2.16784757 7.92589297 -0.08388783 7.96176353 2 8 C2 7.34 2 6.68 2 6 C-3.28 5.67 -8.56 5.34 -14 5 C-14 4.67 -14 4.34 -14 4 C-9.38 4 -4.76 4 0 4 C0 2.68 0 1.36 0 0 Z " fill="#7E8E8E" transform="translate(97,22)"/>
<path d="M0 0 C5.87728057 4.25527128 8.65232046 9.19330494 11 16 C11.72802589 22.15387922 11.34527646 27.9629329 10 34 C9.67 34 9.34 34 9 34 C8.88785156 32.15148437 8.88785156 32.15148437 8.7734375 30.265625 C7.98746241 19.72054803 6.46038781 12.16963084 1 3 C0.67 2.01 0.34 1.02 0 0 Z " fill="#4A4E4E" transform="translate(101,53)"/>
<path d="M0 0 C0.99 0.66 1.98 1.32 3 2 C2.67 3.32 2.34 4.64 2 6 C0.68 5.34 -0.64 4.68 -2 4 C-1.81870185 7.43793339 -1.81870185 7.43793339 -1 11 C0.93597032 12.51294288 0.93597032 12.51294288 3 13 C1.35 13 -0.3 13 -2 13 C-2 15.31 -2 17.62 -2 20 C-3.65 19.67 -5.3 19.34 -7 19 C-6.67 18.01 -6.34 17.02 -6 16 C-5.01 16 -4.02 16 -3 16 C-3 14.68 -3 13.36 -3 12 C-3.99 12 -4.98 12 -6 12 C-6 11.01 -6 10.02 -6 9 C-5.34 9 -4.68 9 -4 9 C-4 8.01 -4 7.02 -4 6 C-5.65 6.33 -7.3 6.66 -9 7 C-9 6.34 -9 5.68 -9 5 C-7.68 5 -6.36 5 -5 5 C-5 4.34 -5 3.68 -5 3 C-4.01 3 -3.02 3 -2 3 C-1.67 2.34 -1.34 1.68 -1 1 C-0.67 0.67 -0.34 0.34 0 0 Z " fill="#788A8A" transform="translate(62,91)"/>
<path d="M0 0 C2.25315168 1.91176506 2.76299983 2.8548317 3.0625 5.75 C2.4025 5.75 1.7425 5.75 1.0625 5.75 C1.0625 5.09 1.0625 4.43 1.0625 3.75 C-1.9075 3.255 -1.9075 3.255 -4.9375 2.75 C-4.9375 2.09 -4.9375 1.43 -4.9375 0.75 C-6.5875 0.75 -8.2375 0.75 -9.9375 0.75 C-9.9375 1.41 -9.9375 2.07 -9.9375 2.75 C-11.9175 3.08 -13.8975 3.41 -15.9375 3.75 C-15.9375 4.41 -15.9375 5.07 -15.9375 5.75 C-17.22983607 7.12310707 -18.56187146 8.46034824 -19.9375 9.75 C-20.9275 9.42 -21.9175 9.09 -22.9375 8.75 C-22.2775 8.42 -21.6175 8.09 -20.9375 7.75 C-20.669375 7.151875 -20.40125 6.55375 -20.125 5.9375 C-16.08067124 -1.5125793 -7.37909086 -3.14003866 0 0 Z " fill="#DBE7E7" transform="translate(59.9375,88.25)"/>
<path d="M0 0 C1.32 0 2.64 0 4 0 C4 0.99 4 1.98 4 3 C3.34 3 2.68 3 2 3 C2 3.99 2 4.98 2 6 C2.99 6 3.98 6 5 6 C5 7.32 5 8.64 5 10 C4.01 10 3.02 10 2 10 C2.309375 11.1446875 2.309375 11.1446875 2.625 12.3125 C3 15 3 15 1 18 C0.34 18 -0.32 18 -1 18 C-1.02684312 15.18743719 -1.04676188 12.37512759 -1.0625 9.5625 C-1.07087891 8.76005859 -1.07925781 7.95761719 -1.08789062 7.13085938 C-1.0965143 5.08704779 -1.0522815 3.04316098 -1 1 C-0.67 0.67 -0.34 0.34 0 0 Z " fill="#364141" transform="translate(54,97)"/>
<path d="M0 0 C3 1 3 1 4.6875 4.0625 C6.30423655 8.18092364 6.37235405 11.60622222 6 16 C5.34 16.66 4.68 17.32 4 18 C3.34 14.04 2.68 10.08 2 6 C1.01 6.99 0.02 7.98 -1 9 C-1.66 9 -2.32 9 -3 9 C-3.33 6.69 -3.66 4.38 -4 2 C-2.68 2.33 -1.36 2.66 0 3 C0 2.01 0 1.02 0 0 Z " fill="#565A5A" transform="translate(64,93)"/>
<path d="M0 0 C1.4540625 1.2065625 1.4540625 1.2065625 2.9375 2.4375 C9.4392471 6.61466601 17.52698078 5.90658726 25 6 C25 6.33 25 6.66 25 7 C21.37 7.33 17.74 7.66 14 8 C19.94 8.33 25.88 8.66 32 9 C32 9.33 32 9.66 32 10 C28.83351345 10.08820927 25.66734908 10.1407905 22.5 10.1875 C21.613125 10.21263672 20.72625 10.23777344 19.8125 10.26367188 C13.81419921 10.3298296 9.44752318 9.56568614 4 7 C0 2.9 0 2.9 0 0 Z " fill="#474D4D" transform="translate(0,35)"/>
<path d="M0 0 C1 2 1 2 0 14 C-9.24 14.33 -18.48 14.66 -28 15 C-24.8861608 11.8861608 -21.789893 11.87350016 -17.5234375 11.8671875 C-16.27046875 11.86525391 -16.27046875 11.86525391 -14.9921875 11.86328125 C-13.69667969 11.86908203 -13.69667969 11.86908203 -12.375 11.875 C-11.50359375 11.87113281 -10.6321875 11.86726563 -9.734375 11.86328125 C-8.48527344 11.86521484 -8.48527344 11.86521484 -7.2109375 11.8671875 C-6.07084229 11.86887939 -6.07084229 11.86887939 -4.90771484 11.87060547 C-3 12 -3 12 -1 13 C-1.01160156 12.14535156 -1.02320312 11.29070313 -1.03515625 10.41015625 C-1.04417969 9.30542969 -1.05320312 8.20070313 -1.0625 7.0625 C-1.07410156 5.96035156 -1.08570312 4.85820312 -1.09765625 3.72265625 C-1 1 -1 1 0 0 Z " fill="#EFF6F6" transform="translate(97,10)"/>
<path d="M0 0 C2.64 0.66 5.28 1.32 8 2 C8 2.66 8 3.32 8 4 C8.598125 4.12375 9.19625 4.2475 9.8125 4.375 C12 5 12 5 15 7 C15 7.99 15 8.98 15 10 C16.32 10 17.64 10 19 10 C20.60337726 12.25660504 21.76582217 14.53164435 23 17 C18.19923267 14.74208941 14.09525284 11.60188383 9.8125 8.5 C8.98041016 7.90574219 8.14832031 7.31148438 7.29101562 6.69921875 C6.50017578 6.12816406 5.70933594 5.55710937 4.89453125 4.96875 C4.17112549 4.44732422 3.44771973 3.92589844 2.70239258 3.38867188 C1 2 1 2 0 0 Z " fill="#A8C1C1" transform="translate(45,71)"/>
<path d="M0 0 C0.66 0.33 1.32 0.66 2 1 C-1 2 -1 2 -4.875 1.875 C-9.57473233 1.81463647 -12.03968083 3.47530731 -15.6875 6.3125 C-17.51791841 8.6658951 -18.17949802 11.15980084 -19 14 C-19.33 14 -19.66 14 -20 14 C-20.29216602 9.03317768 -20.24708889 5.89650666 -17 2 C-11.51684953 -1.69793869 -6.26557471 -2.0885249 0 0 Z " fill="#F0F6F6" transform="translate(57,17)"/>
<path d="M0 0 C0.33 1.32 0.66 2.64 1 4 C-0.8871875 4.3403125 -0.8871875 4.3403125 -2.8125 4.6875 C-6.16810823 5.4982907 -6.77507446 5.68510425 -8.875 8.625 C-9.431875 9.800625 -9.431875 9.800625 -10 11 C-10.66 11 -11.32 11 -12 11 C-12.17615457 7.12459955 -12.28341107 4.24484731 -10 1 C-6.52674819 -0.1577506 -3.63932552 -0.06866652 0 0 Z " fill="#272D2D" transform="translate(58,21)"/>
<path d="M0 0 C-0.22228864 3.89005129 -0.98755638 4.98755638 -3.8125 7.8125 C-7 10 -7 10 -11 10 C-11 7.8125 -11 7.8125 -10 5 C-7.11961214 2.65770658 -3.81180628 0 0 0 Z " fill="#202222" transform="translate(84,115)"/>
<path d="M0 0 C0.99 0.66 1.98 1.32 3 2 C2.45912682 5.78611227 0.88277668 7.55400767 -2 10 C-2.66 10 -3.32 10 -4 10 C-4 11.98 -4 13.96 -4 16 C-4.66 15.67 -5.32 15.34 -6 15 C-6.28999491 10.07008655 -6.19703098 6.90748231 -3 3 C-2.01 3 -1.02 3 0 3 C0 2.01 0 1.02 0 0 Z " fill="#191E1E" transform="translate(36,96)"/>
<path d="M0 0 C0.33 0 0.66 0 1 0 C1 3.63 1 7.26 1 11 C2.65 11 4.3 11 6 11 C6 11.33 6 11.66 6 12 C4.56344146 12.08131463 3.1255517 12.13933559 1.6875 12.1875 C0.48673828 12.23970703 0.48673828 12.23970703 -0.73828125 12.29296875 C-3.47851584 11.93801608 -4.29171079 11.10633718 -6 9 C-5.34 7.35 -4.68 5.7 -4 4 C-2.68 4 -1.36 4 0 4 C0 2.68 0 1.36 0 0 Z " fill="#A7BBBB" transform="translate(103,28)"/>
<path d="M0 0 C0 0.66 0 1.32 0 2 C-1.65 2 -3.3 2 -5 2 C-5 2.66 -5 3.32 -5 4 C-9.62 4 -14.24 4 -19 4 C-19.33 3.01 -19.66 2.02 -20 1 C-17.22922802 0.83225597 -14.45839073 0.66576064 -11.6875 0.5 C-10.90181641 0.45230469 -10.11613281 0.40460938 -9.30664062 0.35546875 C-8.54931641 0.31035156 -7.79199219 0.26523438 -7.01171875 0.21875 C-6.31522217 0.17685547 -5.61872559 0.13496094 -4.90112305 0.09179688 C-3.26903034 0.01299029 -1.63399421 0 0 0 Z " fill="#050707" transform="translate(71,124)"/>
<path d="M0 0 C0.99 0 1.98 0 3 0 C2.814375 1.0725 2.62875 2.145 2.4375 3.25 C2.0695432 6.40391546 1.95534657 8.09818492 3 11 C2.34 11 1.68 11 1 11 C1.33 12.32 1.66 13.64 2 15 C1.34 15 0.68 15 0 15 C-1.99840383 10.8782921 -2.33775739 7.5597248 -2 3 C-1.34 2.01 -0.68 1.02 0 0 Z " fill="#313838" transform="translate(42,96)"/>
<path d="M0 0 C0.66 0.66 1.32 1.32 2 2 C1.06027344 2.18175781 1.06027344 2.18175781 0.1015625 2.3671875 C-0.71570312 2.53476563 -1.53296875 2.70234375 -2.375 2.875 C-3.18710937 3.03742188 -3.99921875 3.19984375 -4.8359375 3.3671875 C-7.18673923 3.86658932 -7.18673923 3.86658932 -9 6 C-9.99 6 -10.98 6 -12 6 C-12 7.98 -12 9.96 -12 12 C-12.66 12 -13.32 12 -14 12 C-13.25531915 4.25531915 -13.25531915 4.25531915 -10 1 C-6.47940432 -0.17353189 -3.693507 -0.20146402 0 0 Z " fill="#EBF4F4" transform="translate(33,93)"/>
<path d="M0 0 C0 0.33 0 0.66 0 1 C1.65 1 3.3 1 5 1 C2.58069291 3.41930709 0.84292782 3.79442204 -2.4375 4.6875 C-3.40558594 4.95949219 -4.37367187 5.23148438 -5.37109375 5.51171875 C-8 6 -8 6 -11 5 C-9.35 4.34 -7.7 3.68 -6 3 C-7.98 3 -9.96 3 -12 3 C-4.82142857 -1.78571429 -4.82142857 -1.78571429 0 0 Z " fill="#3D4141" transform="translate(73,30)"/>
<path d="M0 0 C0.66 0.33 1.32 0.66 2 1 C1.67 1.99 1.34 2.98 1 4 C1.66 4.33 2.32 4.66 3 5 C0.03 5.66 -2.94 6.32 -6 7 C-6 6.34 -6 5.68 -6 5 C-4.35 5 -2.7 5 -1 5 C-1 4.34 -1 3.68 -1 3 C-1.99 3.33 -2.98 3.66 -4 4 C-5.40824893 4.08021999 -6.81997231 4.10765977 -8.23046875 4.09765625 C-9.03291016 4.09443359 -9.83535156 4.09121094 -10.66210938 4.08789062 C-11.49548828 4.07951172 -12.32886719 4.07113281 -13.1875 4.0625 C-14.03248047 4.05798828 -14.87746094 4.05347656 -15.74804688 4.04882812 C-17.83206155 4.03705403 -19.91603977 4.0191189 -22 4 C-22 3.67 -22 3.34 -22 3 C-20.24623047 2.92652344 -20.24623047 2.92652344 -18.45703125 2.8515625 C-16.90883196 2.77649829 -15.36065599 2.70095205 -13.8125 2.625 C-13.04357422 2.5940625 -12.27464844 2.563125 -11.48242188 2.53125 C-7.19885161 2.31063694 -3.97618343 1.72226401 0 0 Z " fill="#445050" transform="translate(72,121)"/>
<path d="M0 0 C0 2.31 0 4.62 0 7 C-2.31 6.67 -4.62 6.34 -7 6 C-7 4.35 -7 2.7 -7 1 C-4 0 -4 0 0 0 Z " fill="#576666" transform="translate(52,110)"/>
<path d="M0 0 C0.33 0 0.66 0 1 0 C1.18175781 0.84884766 1.18175781 0.84884766 1.3671875 1.71484375 C1.53476562 2.44832031 1.70234375 3.18179688 1.875 3.9375 C2.03742187 4.66839844 2.19984375 5.39929688 2.3671875 6.15234375 C2.82961523 8.20700294 2.82961523 8.20700294 5 9 C5 9.66 5 10.32 5 11 C3.02 11.99 3.02 11.99 1 13 C-0.98 11.68 -2.96 10.36 -5 9 C-4.34 8.67 -3.68 8.34 -3 8 C-2.34 8.33 -1.68 8.66 -1 9 C-1.33 7.68 -1.66 6.36 -2 5 C-1.67 5 -1.34 5 -1 5 C-0.67 3.35 -0.34 1.7 0 0 Z " fill="#9FB9B9" transform="translate(32,106)"/>
<path d="M0 0 C4.4635338 0.65320007 8.73936301 1.49624577 13 3 C13.33 3.99 13.66 4.98 14 6 C12.22868439 5.69024532 10.45796222 5.37709575 8.6875 5.0625 C7.70136719 4.88847656 6.71523438 4.71445313 5.69921875 4.53515625 C3 4 3 4 0 3 C0 2.01 0 1.02 0 0 Z " fill="#272A2A" transform="translate(38,122)"/>
<path d="M0 0 C1.47277334 2.94554669 1 5.72766559 1 9 C1.29185063 11.0064731 1.61169599 13.00994193 2 15 C1.01 15.33 0.02 15.66 -1 16 C-1.99 12.37 -2.98 8.74 -4 5 C-3.34 5 -2.68 5 -2 5 C-1.34 3.35 -0.68 1.7 0 0 Z " fill="#889696" transform="translate(40,97)"/>
<path d="M0 0 C8.57142857 -0.28571429 8.57142857 -0.28571429 12 2 C12 2.66 12 3.32 12 4 C8.7 3.67 5.4 3.34 2 3 C1.67 3.99 1.34 4.98 1 6 C0 5 0 5 -0.0625 2.4375 C-0.041875 1.633125 -0.02125 0.82875 0 0 Z " fill="#101313" transform="translate(62,54)"/>
<path d="M0 0 C-1.17938001 3.53814003 -1.79172537 3.67980861 -4.9375 5.375 C-7.86538833 7.09821156 -8.85805207 7.73384763 -10.5 10.8125 C-10.665 11.534375 -10.83 12.25625 -11 13 C-12.16116378 9.51650865 -12.37334311 8.39296533 -11 5 C-7.57742111 2.18996319 -4.49230683 0 0 0 Z " fill="#BDD6D6" transform="translate(94,100)"/>
<path d="M0 0 C0.33 0 0.66 0 1 0 C1 2.97 1 5.94 1 9 C1.99 9.33 2.98 9.66 4 10 C3.01 10.66 2.02 11.32 1 12 C-1.97 9.69 -4.94 7.38 -8 5 C-7.01 4.67 -6.02 4.34 -5 4 C-2.8125 5.4375 -2.8125 5.4375 -1 7 C-0.67 4.69 -0.34 2.38 0 0 Z " fill="#A8B3B3" transform="translate(99,42)"/>
<path d="M0 0 C1.4540625 0.0309375 1.4540625 0.0309375 2.9375 0.0625 C1.9475 1.5475 1.9475 1.5475 0.9375 3.0625 C0.2775 3.0625 -0.3825 3.0625 -1.0625 3.0625 C-1.0625 5.0425 -1.0625 7.0225 -1.0625 9.0625 C-2.3825 9.3925 -3.7025 9.7225 -5.0625 10.0625 C-4.92200482 8.58281676 -4.77495174 7.10375484 -4.625 5.625 C-4.54378906 4.80128906 -4.46257812 3.97757813 -4.37890625 3.12890625 C-3.8690239 -0.20106615 -3.4903173 0.07123097 0 0 Z " fill="#171A1A" transform="translate(105.0625,40.9375)"/>
<path d="M0 0 C0.80824219 0.28746094 1.61648437 0.57492188 2.44921875 0.87109375 C3.06410156 1.09925781 3.67898437 1.32742187 4.3125 1.5625 C4.3125 2.2225 4.3125 2.8825 4.3125 3.5625 C0.6825 3.2325 -2.9475 2.9025 -6.6875 2.5625 C-7.0175 1.5725 -7.3475 0.5825 -7.6875 -0.4375 C-4.20878379 -1.59707207 -3.34530355 -1.21206651 0 0 Z " fill="#D1E2E2" transform="translate(41.6875,117.4375)"/>
<path d="M0 0 C0.9075 0.825 1.815 1.65 2.75 2.5 C7.73310905 6.14743033 13.0892078 5.43675804 19 5 C18.67 5.66 18.34 6.32 18 7 C13.4185249 8.07589851 8.27469203 9.01422048 3.87109375 7.05078125 C2.25 5.75 2.25 5.75 0 3 C0 2.01 0 1.02 0 0 Z " fill="#292F2F" transform="translate(40,111)"/>
<path d="M0 0 C6.75 0.75 6.75 0.75 9 3 C7.35 3 5.7 3 4 3 C4 5.31 4 7.62 4 10 C2.35 9.67 0.7 9.34 -1 9 C-0.67 8.01 -0.34 7.02 0 6 C0.99 6 1.98 6 3 6 C3 4.68 3 3.36 3 2 C2.01 2 1.02 2 0 2 C0 1.34 0 0.68 0 0 Z " fill="#A0B2B2" transform="translate(56,101)"/>
<path d="M0 0 C1.98 0 3.96 0 6 0 C6 0.33 6 0.66 6 1 C4.35 1 2.7 1 1 1 C3.3836813 5.34170523 5.78119883 9.2064129 9 13 C6 13 6 13 4.39453125 11.5390625 C3.87246094 10.90742187 3.35039063 10.27578125 2.8125 9.625 C2.28269531 8.99851562 1.75289063 8.37203125 1.20703125 7.7265625 C0 6 0 6 0 4 C-0.66 4 -1.32 4 -2 4 C-1.34 2.68 -0.68 1.36 0 0 Z " fill="#747A7A" transform="translate(64,57)"/>
<path d="M0 0 C0.66 0 1.32 0 2 0 C2.625 2.8125 2.625 2.8125 3 6 C2.01 7.485 2.01 7.485 1 9 C-0.32 8.67 -1.64 8.34 -3 8 C-3 6.68 -3 5.36 -3 4 C-2.34 3.67 -1.68 3.34 -1 3 C-0.67 2.01 -0.34 1.02 0 0 Z " fill="#303636" transform="translate(15,29)"/>
<path d="M0 0 C3.40843742 2.88406243 4.86591384 4.3708265 5.8125 8.8125 C5.9053125 10.3903125 5.9053125 10.3903125 6 12 C5.01 11.34 4.02 10.68 3 10 C3 9.34 3 8.68 3 8 C2.34 8 1.68 8 1 8 C-0.35439668 5.29120665 -0.06501451 2.99066732 0 0 Z " fill="#5A6868" transform="translate(99,8)"/>
<path d="M0 0 C0.66 0 1.32 0 2 0 C2.05395478 1.62463842 2.09277195 3.24978541 2.125 4.875 C2.14820312 5.77992187 2.17140625 6.68484375 2.1953125 7.6171875 C2 10 2 10 0 12 C-0.33 11.34 -0.66 10.68 -1 10 C-1.99 10.495 -1.99 10.495 -3 11 C-2.01 7.37 -1.02 3.74 0 0 Z " fill="#272D2D" transform="translate(108,79)"/>
<path d="M0 0 C1.8871875 0.061875 1.8871875 0.061875 3.8125 0.125 C4.1425 0.785 4.4725 1.445 4.8125 2.125 C2.9871875 2.24875 2.9871875 2.24875 1.125 2.375 C-2.97215871 2.86258372 -5.18889908 4.22010536 -8.1875 7.125 C-7.875 4.75 -7.875 4.75 -7.1875 2.125 C-4.09861478 0.06574319 -3.47814073 -0.1140374 0 0 Z " fill="#E5F1F1" transform="translate(8.1875,25.875)"/>
<path d="M0 0 C1.8125 0.9375 1.8125 0.9375 2.8125 3.9375 C-0.55847383 5.43571059 -2.39192119 5.9375 -6.1875 5.9375 C-6.1875 3.9375 -6.1875 3.9375 -4.4375 1.75 C-2.1875 -0.0625 -2.1875 -0.0625 0 0 Z " fill="#728585" transform="translate(59.1875,111.0625)"/>
<path d="M0 0 C0.66 0.33 1.32 0.66 2 1 C1.67 4.96 1.34 8.92 1 13 C0.01 13.33 -0.98 13.66 -2 14 C-1.85795259 12.41632253 -1.71119847 10.83306682 -1.5625 9.25 C-1.48128906 8.36828125 -1.40007812 7.4865625 -1.31640625 6.578125 C-1.03761535 4.30649548 -0.61209423 2.20148177 0 0 Z " fill="#ACC6C6" transform="translate(106,10)"/>
<path d="M0 0 C0.33 0 0.66 0 1 0 C2.47075246 4.41225737 3.36884358 7.48281619 2 12 C0.68 11.01 -0.64 10.02 -2 9 C-1.34 6.03 -0.68 3.06 0 0 Z " fill="#A5BEBE" transform="translate(102,1)"/>
<path d="M0 0 C0 1.98 0 3.96 0 6 C-1.32 6 -2.64 6 -4 6 C-4 5.34 -4 4.68 -4 4 C-4.99 4 -5.98 4 -7 4 C-6.67 3.01 -6.34 2.02 -6 1 C-3.90006779 0.25486277 -2.22568901 0 0 0 Z " fill="#404B4B" transform="translate(52,90)"/>
<path d="M0 0 C2.31 0.66 4.62 1.32 7 2 C7 2.66 7 3.32 7 4 C6.01 4 5.02 4 4 4 C4 4.66 4 5.32 4 6 C2.68 6 1.36 6 0 6 C0 4.02 0 2.04 0 0 Z " fill="#465454" transform="translate(53,90)"/>
<path d="M0 0 C-1.60032137 0.84069415 -3.20541171 1.67231505 -4.8125 2.5 C-6.15248047 3.19609375 -6.15248047 3.19609375 -7.51953125 3.90625 C-10 5 -10 5 -13 5 C-12.5 3.125 -12.5 3.125 -11 1 C-7.08733883 -0.61407836 -4.0524829 -1.35082763 0 0 Z " fill="#080909" transform="translate(68,33)"/>
<path d="M0 0 C1.79158489 -0.02696365 3.58328473 -0.04637917 5.375 -0.0625 C6.37273437 -0.07410156 7.37046875 -0.08570312 8.3984375 -0.09765625 C11 0 11 0 13 1 C13 1.66 13 2.32 13 3 C6.07 2.505 6.07 2.505 -1 2 C-0.67 1.34 -0.34 0.68 0 0 Z " fill="#070A0A" transform="translate(86,27)"/>
<path d="M0 0 C3.28220895 1.64110448 3.74570789 4.69322988 5 8 C5 8.99 5 9.98 5 11 C4.67 10.67 4.34 10.34 4 10 C3.34 11.32 2.68 12.64 2 14 C0.99740493 10.99221479 0.69685358 8.46179353 0.4375 5.3125 C0.35371094 4.31863281 0.26992187 3.32476562 0.18359375 2.30078125 C0.12300781 1.54152344 0.06242187 0.78226562 0 0 Z " fill="#393F3F" transform="translate(103,1)"/>
<path d="M0 0 C4.41393071 2.20696535 6.64950384 4.66062248 9 9 C8.67 9.99 8.34 10.98 8 12 C7.2575 10.9275 6.515 9.855 5.75 8.75 C3.71459798 5.89115898 1.58340552 3.39204215 -1 1 C-0.67 0.67 -0.34 0.34 0 0 Z " fill="#3D4242" transform="translate(65,87)"/>
<path d="M0 0 C3.98671063 1.36687222 6.88494633 3.15195093 10 6 C10 6.66 10 7.32 10 8 C6.01328937 6.63312778 3.11505367 4.84804907 0 2 C0 1.34 0 0.68 0 0 Z " fill="#272A2A" transform="translate(55,80)"/>
<path d="M0 0 C0.33 0.66 0.66 1.32 1 2 C-2.3 2.66 -5.6 3.32 -9 4 C-9.33 5.98 -9.66 7.96 -10 10 C-10.33 10 -10.66 10 -11 10 C-11.66 7.03 -12.32 4.06 -13 1 C-11.84371094 1.01740234 -11.84371094 1.01740234 -10.6640625 1.03515625 C-9.15972656 1.04869141 -9.15972656 1.04869141 -7.625 1.0625 C-6.12839844 1.07990234 -6.12839844 1.07990234 -4.6015625 1.09765625 C-2.01567547 1.18006602 -2.01567547 1.18006602 0 0 Z " fill="#4E5E5E" transform="translate(111,38)"/>
<path d="M0 0 C0.99 0.66 1.98 1.32 3 2 C2.65120368 5.25543229 1.97866739 6.01873107 -0.5625 8.25 C-1.366875 8.8275 -2.17125 9.405 -3 10 C-2.7215625 8.824375 -2.7215625 8.824375 -2.4375 7.625 C-1.74037734 5.02910225 -1.74037734 5.02910225 -3 3 C-2.01 3 -1.02 3 0 3 C0 2.01 0 1.02 0 0 Z " fill="#222525" transform="translate(36,96)"/>
<path d="M0 0 C5.95345745 2.09175532 5.95345745 2.09175532 8 5 C8.1875 7.6875 8.1875 7.6875 8 10 C4.74475735 6.97727468 2.38179263 3.74281699 0 0 Z " fill="#BFD7D7" transform="translate(64,83)"/>
<path d="M0 0 C1.65 0 3.3 0 5 0 C5 0.99 5 1.98 5 3 C4.34 3 3.68 3 3 3 C2.67 4.32 2.34 5.64 2 7 C1.34 7 0.68 7 0 7 C0 4.69 0 2.38 0 0 Z " fill="#1B2020" transform="translate(60,104)"/>
<path d="M0 0 C0.41176754 3.60296594 0.1535853 4.78402067 -2 7.8125 C-2.66 8.534375 -3.32 9.25625 -4 10 C-4.97140086 6.97786398 -5.19248372 4.9812093 -4 2 C-1 0 -1 0 0 0 Z " fill="#171919" transform="translate(108,88)"/>
<path d="M0 0 C0 0.33 0 0.66 0 1 C-1.2684375 1.4021875 -1.2684375 1.4021875 -2.5625 1.8125 C-6.13854067 3.0478595 -9.53860908 4.476988 -13 6 C-12.06896676 3.67241689 -11.34617872 2.25642868 -9.3125 0.75 C-6.16454282 -0.27095909 -3.28456632 -0.12632947 0 0 Z " fill="#EFF6F6" transform="translate(49,49)"/>
<path d="M0 0 C0.33 0 0.66 0 1 0 C1.9765625 6.0546875 1.9765625 6.0546875 2 8 C1.34 8.66 0.68 9.32 0 10 C0 9.01 0 8.02 0 7 C-1.65 7.66 -3.3 8.32 -5 9 C-4.360625 8.071875 -3.72125 7.14375 -3.0625 6.1875 C-0.91377907 3.15780057 -0.91377907 3.15780057 0 0 Z " fill="#3A4545" transform="translate(84,108)"/>
<path d="M0 0 C2.64 0.66 5.28 1.32 8 2 C8 2.66 8 3.32 8 4 C8.99 4.33 9.98 4.66 11 5 C8.3125 5.3125 8.3125 5.3125 5 5 C2.125 2.5 2.125 2.5 0 0 Z " fill="#AEC8C8" transform="translate(45,71)"/>
<path d="M0 0 C0.33 1.32 0.66 2.64 1 4 C0.34 4 -0.32 4 -1 4 C-1.33 4.66 -1.66 5.32 -2 6 C-3.65 5.01 -5.3 4.02 -7 3 C-4.66785852 1.79371992 -2.50357861 0.8345262 0 0 Z " fill="#111515" transform="translate(108,23)"/>
<path d="M0 0 C1.32 0.33 2.64 0.66 4 1 C4.33 2.32 4.66 3.64 5 5 C3.35 5.33 1.7 5.66 0 6 C0 4.02 0 2.04 0 0 Z " fill="#798787" transform="translate(64,21)"/>
<path d="M0 0 C3.19199167 2.41556126 5.74716687 4.68003538 8 8 C7.01 8.33 6.02 8.66 5 9 C0.57142857 3.85714286 0.57142857 3.85714286 0 0 Z " fill="#484D4D" transform="translate(36,63)"/>
<path d="M0 0 C5.53846154 0.61538462 5.53846154 0.61538462 7.875 2.5625 C8.431875 3.2740625 8.431875 3.2740625 9 4 C8.67 4.99 8.34 5.98 8 7 C6.66382648 6.02471263 5.3311249 5.04466681 4 4.0625 C3.2575 3.51722656 2.515 2.97195312 1.75 2.41015625 C1.1725 1.94480469 0.595 1.47945312 0 1 C0 0.67 0 0.34 0 0 Z " fill="#A8C1C1" transform="translate(72,55)"/>
<path d="M0 0 C1.5027237 0.97498145 3.00211963 1.95509389 4.5 2.9375 C5.3353125 3.48277344 6.170625 4.02804688 7.03125 4.58984375 C7.6809375 5.05519531 8.330625 5.52054688 9 6 C9 6.33 9 6.66 9 7 C6.75 7.3125 6.75 7.3125 4 7 C0 2.89189189 0 2.89189189 0 0 Z " fill="#252929" transform="translate(0,35)"/>
<path d="M0 0 C1.98 0 3.96 0 6 0 C6 0.99 6 1.98 6 3 C5.01 3 4.02 3 3 3 C3 3.66 3 4.32 3 5 C2.34 5 1.68 5 1 5 C0.67 3.35 0.34 1.7 0 0 Z " fill="#212525" transform="translate(46,104)"/>
<path d="M0 0 C0 1.65 0 3.3 0 5 C-1.98 5.99 -1.98 5.99 -4 7 C-4.33 5.35 -4.66 3.7 -5 2 C-2 0 -2 0 0 0 Z " fill="#2B3131" transform="translate(95,102)"/>
<path d="M0 0 C1.65 0 3.3 0 5 0 C5 0.99 5 1.98 5 3 C4.01 3 3.02 3 2 3 C2 3.66 2 4.32 2 5 C1.01 5 0.02 5 -1 5 C-0.67 3.35 -0.34 1.7 0 0 Z " fill="#222929" transform="translate(47,97)"/>
<path d="M0 0 C0.99 0 1.98 0 3 0 C2.49396008 2.16874252 2.00016187 3.99967627 1 6 C0.01 6 -0.98 6 -2 6 C-1.125 1.125 -1.125 1.125 0 0 Z " fill="#161A1A" transform="translate(42,96)"/>
<path d="M0 0 C0.66 0 1.32 0 2 0 C2 2.97 2 5.94 2 9 C1.01 9 0.02 9 -1 9 C-0.34 8.67 0.32 8.34 1 8 C0.649375 7.4225 0.29875 6.845 -0.0625 6.25 C-1.14917407 3.64198224 -0.93065133 2.60582371 0 0 Z " fill="#BCCBCB" transform="translate(44,99)"/>
<path d="M0 0 C1 2 1 2 0.1875 5.5625 C-1 9 -1 9 -3 10 C-3.33 8.35 -3.66 6.7 -4 5 C-3.34 5 -2.68 5 -2 5 C-1.34 3.35 -0.68 1.7 0 0 Z " fill="#AFBFBF" transform="translate(40,97)"/>
<path d="M0 0 C2.3125 -0.3125 2.3125 -0.3125 5 0 C6.75 2.375 6.75 2.375 8 5 C8.33 5.66 8.66 6.32 9 7 C5.18315774 5.44499019 2.80804268 2.96404505 0 0 Z " fill="#9BB6B6" transform="translate(59,81)"/>
<path d="M0 0 C2.7972908 2.06756277 3.02692273 3.14440371 3.6875 6.6875 C3.790625 7.780625 3.89375 8.87375 4 10 C1.99940392 7.45378681 0.20784954 5.01962385 -1 2 C-0.67 1.34 -0.34 0.68 0 0 Z " fill="#747E7D" transform="translate(83,65)"/>
<path d="M0 0 C0.33 0 0.66 0 1 0 C1.18175781 0.84884766 1.18175781 0.84884766 1.3671875 1.71484375 C1.53476562 2.44832031 1.70234375 3.18179688 1.875 3.9375 C2.03742187 4.66839844 2.19984375 5.39929688 2.3671875 6.15234375 C2.82961523 8.20700294 2.82961523 8.20700294 5 9 C4.67 9.66 4.34 10.32 4 11 C2.02 9.68 0.04 8.36 -2 7 C-1.34 4.69 -0.68 2.38 0 0 Z " fill="#797F7F" transform="translate(32,106)"/>
<path d="M0 0 C1.32 0.33 2.64 0.66 4 1 C4 1.99 4 2.98 4 4 C3.34 4 2.68 4 2 4 C2.33 4.99 2.66 5.98 3 7 C2.34 7 1.68 7 1 7 C0.67 4.69 0.34 2.38 0 0 Z " fill="#171B1B" transform="translate(60,95)"/>
<path d="M0 0 C3.79588866 0.54226981 5.47211993 2.20127563 8 5 C6.68 5 5.36 5 4 5 C1.75 2.5 1.75 2.5 0 0 Z " fill="#232626" transform="translate(42,71)"/>
<path d="M0 0 C1.98 0.99 1.98 0.99 4 2 C4 3.98 4 5.96 4 8 C3.01 7.67 2.02 7.34 1 7 C0.67 4.69 0.34 2.38 0 0 Z " fill="#B7CBCB" transform="translate(72,93)"/>
<path d="M0 0 C0.66 0 1.32 0 2 0 C1.6875 2.375 1.6875 2.375 1 5 C0.01 5.66 -0.98 6.32 -2 7 C-2.33 6.01 -2.66 5.02 -3 4 C-2.34 4 -1.68 4 -1 4 C-0.67 2.68 -0.34 1.36 0 0 Z " fill="#ABBBBB" transform="translate(63,107)"/>
<path d="M0 0 C0.99 0.495 0.99 0.495 2 1 C2 1.66 2 2.32 2 3 C4.475 3.99 4.475 3.99 7 5 C5.1875 5.6875 5.1875 5.6875 3 6 C1.25 4.75 1.25 4.75 0 3 C0 2.01 0 1.02 0 0 Z " fill="#CCE4E3" transform="translate(44,66)"/>
<path d="M0 0 C0.33 0 0.66 0 1 0 C1 2.97 1 5.94 1 9 C1.99 9.33 2.98 9.66 4 10 C3.01 10.66 2.02 11.32 1 12 C0 11 0 11 -0.09765625 8.49609375 C-0.08605469 7.48675781 -0.07445313 6.47742187 -0.0625 5.4375 C-0.05347656 4.42558594 -0.04445313 3.41367187 -0.03515625 2.37109375 C-0.02355469 1.58863281 -0.01195313 0.80617187 0 0 Z " fill="#8B9191" transform="translate(99,42)"/>
<path d="M0 0 C3.3 0 6.6 0 10 0 C7.09907498 1.93395001 6.10325263 2.30131941 2.8125 2.625 C1.554375 2.74875 0.29625 2.8725 -1 3 C-0.67 2.01 -0.34 1.02 0 0 Z " fill="#9CB8B8" transform="translate(54,31)"/>
<path d="M0 0 C1.32 0.33 2.64 0.66 4 1 C2.68 1.33 1.36 1.66 0 2 C0 1.34 0 0.68 0 0 Z M-3 2 C-2.01 2.33 -1.02 2.66 0 3 C-1.65 4.32 -3.3 5.64 -5 7 C-4.125 3.125 -4.125 3.125 -3 2 Z " fill="#D4E8E8" transform="translate(44,18)"/>
</svg>
